<?xml version="1.0" standalone="no"?>
<!DOCTYPE svg PUBLIC "-//W3C//DTD SVG 20010904//EN"
 "http://www.w3.org/TR/2001/REC-SVG-20010904/DTD/svg10.dtd">
<svg version="1.0" xmlns="http://www.w3.org/2000/svg"
 width="1371.000000pt" height="1374.000000pt" viewBox="0 0 1371.000000 1374.000000"
 preserveAspectRatio="xMidYMid meet">

<g transform="translate(0.000000,1374.000000) scale(0.100000,-0.100000)"
fill="#000000" stroke="none">
<path d="M10695 11125 c-10 -3 -200 -60 -950 -280 -198 -59 -448 -133 -555
-165 -107 -32 -357 -107 -555 -165 -198 -59 -439 -131 -535 -160 -96 -30 -201
-61 -233 -70 -81 -23 -117 -56 -117 -106 0 -49 26 -78 243 -277 284 -259 427
-394 427 -403 0 -5 -69 -84 -152 -176 -84 -92 -236 -260 -337 -373 -720 -805
-978 -1060 -1346 -1333 -135 -100 -399 -277 -490 -327 -273 -152 -734 -495
-972 -724 -46 -43 -83 -76 -83 -72 0 3 16 60 35 125 46 154 89 363 111 531 15
114 18 240 21 807 3 460 1 678 -6 692 -6 11 -49 42 -95 70 -273 166 -438 487
-406 794 30 293 204 545 465 671 132 65 211 81 385 81 153 -1 200 -10 317 -61
433 -192 627 -694 433 -1121 -62 -137 -191 -280 -332 -367 -42 -26 -84 -58
-92 -71 -14 -21 -16 -86 -16 -530 0 -328 4 -513 10 -526 13 -24 61 -49 94 -49
14 0 39 12 56 28 l31 27 -1 472 0 471 77 55 c112 79 165 128 233 219 427 567
170 1384 -505 1601 -113 37 -191 48 -321 48 -163 0 -283 -25 -429 -91 -283
-127 -512 -407 -578 -705 -62 -281 -5 -570 160 -817 53 -79 183 -207 272 -267
l63 -43 -5 -611 c-4 -656 -8 -714 -63 -990 -76 -380 -228 -764 -433 -1087
-102 -162 -251 -449 -301 -582 l-33 -87 -81 -52 c-117 -76 -240 -203 -309
-319 -111 -187 -153 -351 -144 -570 8 -212 54 -354 172 -531 148 -222 392
-383 670 -440 88 -18 304 -15 399 5 308 67 586 287 722 571 101 210 125 473
65 705 -22 85 -84 236 -108 262 -13 15 -10 26 37 117 142 277 379 557 663 785
119 95 343 246 567 382 420 254 840 571 1180 888 147 138 377 380 562 593 73
83 134 151 135 149 1 -1 -13 -46 -32 -100 -91 -252 -145 -492 -181 -791 -17
-135 -18 -231 -15 -955 2 -649 5 -809 16 -826 7 -11 48 -41 91 -66 264 -154
417 -439 401 -748 -25 -480 -435 -833 -916 -789 -210 19 -383 107 -539 273
-224 240 -283 595 -148 900 60 135 188 279 321 361 44 27 88 55 98 63 16 14
17 58 17 649 l0 634 -25 24 c-28 29 -71 32 -121 9 -18 -9 -37 -26 -41 -37 -4
-12 -7 -277 -5 -588 l2 -566 -82 -61 c-195 -142 -322 -321 -394 -558 -26 -82
-28 -102 -28 -269 -1 -201 7 -243 72 -395 73 -172 161 -290 302 -403 418 -336
1006 -305 1381 72 131 132 215 270 265 437 36 120 45 355 19 484 -21 103 -64
223 -106 299 -71 126 -199 265 -321 348 l-68 47 0 750 c0 894 5 968 91 1311
96 385 241 715 452 1029 50 74 244 296 259 296 6 0 49 -37 97 -83 82 -79 355
-330 506 -465 62 -55 74 -62 111 -62 54 0 89 37 98 107 4 26 27 158 51 293 36
199 101 570 155 885 29 167 161 915 219 1235 107 597 106 589 70 625 -23 23
-72 39 -94 30z m-100 -257 c-8 -36 -69 -376 -125 -698 -28 -162 -75 -430 -105
-595 -68 -377 -145 -814 -195 -1103 -21 -123 -40 -226 -43 -228 -4 -4 -147
123 -453 403 -85 79 -166 146 -180 149 -13 3 -35 3 -48 0 -22 -5 -212 -206
-510 -540 -55 -61 -160 -178 -235 -261 -75 -82 -208 -231 -296 -329 -571 -641
-1029 -1022 -1770 -1473 -294 -179 -486 -318 -641 -464 -190 -180 -330 -345
-459 -542 -70 -108 -176 -326 -177 -365 -1 -17 14 -53 36 -89 89 -144 132
-316 123 -488 -17 -314 -192 -577 -474 -715 -125 -61 -216 -82 -358 -83 -231
-1 -407 70 -581 235 -127 121 -194 237 -240 414 -41 160 -27 339 40 504 58
144 202 309 343 392 43 26 86 55 95 65 9 10 33 62 52 117 147 406 433 826 826
1215 247 246 554 479 920 701 197 120 445 286 595 399 380 287 577 485 1451
1455 506 560 493 544 457 611 -10 19 -121 127 -248 241 -300 271 -369 334
-364 337 4 4 406 124 609 183 69 19 159 46 200 59 41 13 192 58 335 100 143
42 310 91 370 110 61 18 160 47 220 65 61 18 182 54 270 80 88 26 210 62 270
80 61 18 144 43 185 56 98 30 112 30 105 2z"/>
<path d="M9564 9840 c-11 -4 -49 -41 -85 -81 -35 -40 -228 -256 -429 -479
-201 -224 -435 -485 -520 -580 -806 -904 -1058 -1162 -1403 -1438 -183 -146
-325 -245 -632 -439 -137 -87 -299 -191 -360 -232 -813 -547 -1276 -1154
-1469 -1926 -37 -151 -66 -313 -66 -377 0 -49 3 -59 26 -77 38 -30 89 -27 123
7 24 23 30 42 45 142 93 610 382 1159 845 1603 198 189 411 349 760 572 602
383 836 556 1163 859 229 211 389 382 1078 1156 129 145 318 356 420 470 102
113 235 262 295 330 61 68 156 174 212 236 124 138 127 142 113 194 -15 56
-64 81 -116 60z"/>
</g>
</svg>
